<?xml version="1.0" standalone="no"?>
<!DOCTYPE svg PUBLIC "-//W3C//DTD SVG 20010904//EN"
 "http://www.w3.org/TR/2001/REC-SVG-20010904/DTD/svg10.dtd">
<svg version="1.0" xmlns="http://www.w3.org/2000/svg"
 width="960.000000pt" height="671.000000pt" viewBox="0 0 960.000000 671.000000"
 preserveAspectRatio="xMidYMid meet">

<g transform="translate(0.000000,671.000000) scale(0.100000,-0.100000)"
fill="#000000" stroke="none">
<path d="M5272 6684 c3 -24 12 -29 86 -52 79 -24 87 -25 145 -12 34 7 73 15
86 18 20 4 23 2 18 -12 -4 -9 -2 -39 4 -67 13 -59 8 -67 -46 -72 -25 -2 -61
-18 -95 -40 -46 -31 -63 -37 -110 -37 -84 -1 -100 -18 -101 -109 -1 -84 4 -76
-111 -162 -16 -11 -28 -27 -28 -35 0 -8 -4 -14 -10 -14 -13 0 -13 3 2 35 18
40 -7 50 -47 19 -18 -13 -37 -24 -43 -24 -6 0 -18 -13 -26 -28 -8 -15 -27 -34
-43 -42 -15 -8 -34 -22 -40 -30 -11 -13 -14 -12 -19 8 -7 23 -28 30 -40 11 -3
-6 -22 -17 -40 -25 -19 -8 -34 -20 -34 -28 0 -22 -24 -38 -38 -24 -9 9 -18 8
-37 -2 -22 -12 -25 -20 -25 -63 l0 -49 -35 6 c-29 6 -38 3 -57 -20 -13 -15
-27 -32 -33 -38 -5 -6 -11 -24 -12 -40 -2 -34 -1 -33 -34 -41 -20 -5 -28 -2
-33 11 -4 10 -3 20 2 23 5 3 17 21 26 38 15 31 15 35 -1 60 -24 38 -32 43 -76
43 -35 0 -117 -35 -125 -52 -2 -5 -9 -8 -15 -8 -7 0 -17 -10 -22 -22 -6 -13
-19 -23 -31 -24 -11 -1 -32 -9 -46 -18 -18 -12 -28 -14 -33 -6 -4 7 -21 9 -44
5 -37 -6 -41 -3 -180 120 l-141 126 -52 -16 c-28 -8 -54 -12 -57 -9 -3 3 -6
67 -6 142 0 115 -4 143 -20 175 -15 29 -25 37 -46 37 -14 0 -31 6 -37 13 -12
15 -32 107 -32 148 0 42 -41 61 -71 33 -59 -55 -79 -78 -79 -91 0 -13 -9 -14
-42 -10 -40 5 -44 3 -85 -41 -24 -25 -43 -49 -43 -54 0 -14 -30 -8 -36 7 -4 8
-12 15 -19 15 -8 0 -22 11 -33 25 -23 29 -43 32 -65 7 -23 -26 -41 -76 -28
-80 6 -2 11 -10 11 -17 0 -11 -57 -14 -297 -17 -164 -2 -305 0 -313 4 -53 24
-82 27 -106 12 -13 -9 -32 -14 -42 -11 -11 2 -30 -1 -42 -8 -13 -7 -30 -11
-37 -8 -10 4 -13 -30 -13 -170 0 -102 4 -178 10 -182 5 -3 18 0 29 7 15 9 23
9 35 -1 8 -7 21 -9 27 -5 17 10 100 5 115 -7 8 -7 18 -6 31 1 24 15 73 -3 80
-30 3 -11 10 -20 15 -20 5 0 7 -4 3 -9 -3 -5 0 -15 7 -23 16 -17 19 -61 4 -70
-8 -5 -8 -13 2 -28 16 -26 15 -30 -3 -30 -8 0 -15 -4 -15 -10 0 -5 -7 -10 -15
-10 -8 0 -15 5 -15 10 0 6 -12 9 -27 7 -22 -3 -34 3 -54 27 l-26 30 -37 -27
c-24 -19 -43 -26 -56 -22 -13 4 -31 -2 -50 -15 -17 -12 -46 -22 -65 -23 -19
-1 -35 -3 -35 -7 0 -3 -15 -5 -32 -5 l-33 0 -3 -203 -2 -203 37 -44 c20 -25
44 -45 53 -45 8 0 35 -16 58 -35 24 -19 52 -37 62 -40 27 -9 43 -83 24 -113
-14 -21 -13 -25 14 -60 16 -20 32 -45 35 -54 4 -10 11 -18 16 -18 5 0 16 -21
24 -47 16 -53 15 -150 -2 -228 -7 -27 -34 -183 -62 -345 -71 -418 -188 -1058
-201 -1105 -6 -22 -17 -47 -25 -55 -12 -13 -17 -11 -38 14 -14 16 -25 24 -25
18 0 -7 -6 -12 -14 -12 -8 0 -16 -8 -18 -17 -3 -16 -4 -16 -20 0 -9 9 -21 17
-26 17 -6 0 -8 8 -6 18 10 37 -19 56 -89 58 -48 1 -67 -2 -71 -12 -3 -8 -10
-14 -15 -14 -6 0 -8 7 -5 15 4 10 0 15 -15 15 -12 0 -21 -6 -21 -15 0 -18 -12
-19 -27 -4 -13 13 -53 -9 -53 -28 0 -7 -7 -13 -16 -13 -8 0 -13 -4 -10 -9 3
-5 -4 -21 -15 -35 -16 -20 -24 -24 -34 -16 -9 8 -14 8 -17 0 -2 -6 -34 -11
-76 -11 -39 -1 -72 -4 -72 -9 0 -8 -67 -25 -87 -21 -17 2 -55 -18 -70 -38 -11
-14 -12 -14 -13 2 0 18 -15 23 -24 8 -6 -10 -25 -9 -41 1 -20 13 -98 -16 -118
-44 -12 -16 -26 -28 -32 -28 -7 0 -20 -9 -30 -20 -23 -25 -71 -50 -110 -57
-16 -3 -42 -18 -56 -34 -14 -16 -31 -29 -36 -29 -6 0 -14 -7 -17 -16 -4 -9 -9
-14 -12 -11 -7 6 -23 -5 -59 -40 -12 -13 -31 -23 -42 -23 -11 0 -26 -7 -33
-15 -7 -8 -19 -15 -26 -15 -8 0 -14 -4 -14 -10 0 -5 -7 -10 -16 -10 -13 0 -15
-7 -11 -28 4 -18 -3 -50 -19 -87 -13 -33 -24 -71 -24 -84 0 -49 -25 -103 -66
-145 -23 -24 -45 -54 -49 -67 -4 -13 -13 -33 -19 -44 -24 -37 -26 -71 -9 -106
9 -19 19 -36 22 -39 9 -7 31 -74 31 -91 0 -21 -52 -69 -74 -69 -10 0 -57 -19
-103 -42 -104 -52 -157 -113 -151 -175 2 -30 -1 -39 -19 -48 l-21 -11 21 -35
c12 -18 25 -35 29 -37 5 -2 8 -15 8 -28 0 -21 -5 -24 -34 -24 -19 0 -38 -5
-41 -11 -4 -6 -13 -8 -21 -5 -11 4 -14 -9 -14 -67 0 -66 3 -75 29 -105 17 -17
38 -32 48 -32 24 0 43 -19 43 -42 0 -11 -7 -18 -20 -18 -39 0 -19 -55 31 -86
22 -14 39 -51 39 -83 0 -16 6 -34 14 -41 8 -6 16 -24 18 -38 2 -19 13 -31 35
-42 18 -8 35 -22 38 -30 3 -9 15 -16 26 -17 28 -2 32 -8 31 -42 -1 -31 30 -67
63 -73 20 -3 29 -17 54 -81 8 -20 20 -37 28 -37 32 0 48 -94 20 -115 -10 -7
-17 -17 -17 -23 0 -6 -9 -14 -20 -17 -11 -3 -20 -10 -20 -14 0 -5 -16 -25 -35
-45 -19 -21 -35 -42 -35 -47 0 -5 57 -9 130 -9 72 0 130 -4 130 -8 0 -4 14 -9
31 -10 17 -1 39 -6 48 -11 9 -4 33 -9 55 -10 21 -1 45 -8 53 -16 8 -8 21 -15
29 -15 8 0 14 -7 14 -15 0 -8 5 -15 11 -15 6 0 9 -15 7 -37 -2 -31 1 -38 22
-47 22 -10 32 -40 21 -66 -1 -3 -4 -18 -6 -33 l-4 -29 247 5 c136 2 257 7 268
11 12 4 27 19 35 32 12 23 59 54 83 54 6 1 31 21 56 45 25 25 49 45 55 45 6 0
17 9 25 21 8 11 31 29 52 40 20 10 38 24 41 31 2 7 8 10 12 6 4 -4 -2 -19 -13
-33 -17 -22 -19 -31 -10 -51 6 -13 15 -24 20 -24 4 0 8 -11 8 -24 0 -15 -7
-26 -20 -29 -18 -5 -20 -14 -20 -81 0 -42 3 -76 8 -76 4 0 6 28 4 63 -3 59 -2
65 22 81 29 19 35 56 11 76 -20 17 -19 27 5 52 11 12 21 30 22 40 0 10 1 24 2
30 3 36 -79 -8 -149 -79 -12 -13 -27 -23 -33 -23 -6 0 -21 -13 -33 -30 -12
-16 -26 -27 -31 -24 -4 3 -13 -6 -19 -19 -7 -16 -23 -27 -41 -31 -16 -3 -42
-19 -56 -34 -15 -16 -36 -33 -47 -39 -12 -7 -109 -12 -247 -12 l-227 -2 1 43
c1 24 6 46 11 49 5 4 -7 13 -26 20 -34 12 -36 15 -32 51 2 21 -1 38 -6 38 -5
0 -9 8 -9 18 -1 21 -63 52 -117 57 -21 2 -52 8 -70 13 -17 6 -34 8 -37 4 -3
-3 -6 0 -6 6 0 7 -3 11 -7 11 -5 -1 -62 -1 -128 0 l-120 2 30 26 c17 14 29 28
28 30 -9 11 0 23 17 23 12 0 24 10 30 24 5 13 14 27 19 31 26 16 3 120 -29
130 -8 3 -27 31 -42 63 -19 43 -32 58 -48 59 -28 2 -47 28 -54 75 -5 32 -10
38 -31 38 -14 0 -25 4 -25 10 0 5 -15 16 -33 25 -24 11 -37 27 -50 64 -9 27
-17 58 -17 69 0 12 -5 24 -10 27 -6 3 -10 13 -10 21 0 18 -38 53 -57 54 -19 0
-16 13 7 33 36 30 18 75 -36 91 -45 14 -64 44 -64 101 0 60 20 96 50 88 10 -3
27 0 39 7 17 8 20 17 15 38 -4 15 -12 30 -18 34 -6 4 -8 10 -4 13 4 4 134 -50
290 -119 254 -112 297 -128 408 -151 69 -14 145 -32 170 -40 41 -13 555 -131
809 -185 95 -21 122 -32 335 -147 512 -275 722 -373 1441 -672 121 -51 240
-100 264 -110 l43 -18 -27 -19 c-49 -34 -90 -73 -77 -74 7 0 31 13 54 30 22
16 46 30 51 30 6 0 18 6 26 14 9 8 40 17 70 19 29 3 56 9 60 14 3 5 24 10 46
12 21 1 44 6 50 11 5 4 30 7 55 6 25 -2 50 0 55 3 13 8 125 9 125 1 0 -4 20
-11 44 -17 40 -9 46 -8 62 11 10 12 18 24 17 27 -4 13 35 39 49 34 22 -9 52
-83 39 -98 -13 -16 -12 -97 1 -97 6 0 8 16 6 37 -3 23 1 47 9 59 12 18 10 26
-12 67 -26 45 -65 71 -73 48 -2 -6 -8 -9 -13 -6 -4 3 -11 -5 -14 -18 -4 -14
-18 -31 -32 -38 -23 -12 -27 -11 -44 9 -13 17 -24 22 -39 17 -12 -4 -20 -2
-20 5 0 6 -5 8 -12 4 -6 -4 -27 -7 -46 -6 -19 1 -44 -3 -55 -10 -11 -6 -43
-12 -71 -13 -69 -4 -79 -6 -93 -18 -7 -5 -13 -6 -13 -3 0 4 -9 2 -19 -4 -11
-5 -41 -12 -67 -15 -26 -4 -51 -8 -56 -11 -10 -6 -98 32 -98 43 0 9 15 18 90
53 48 23 95 69 111 110 8 23 15 25 67 25 31 0 74 3 95 7 33 6 42 3 63 -17 14
-14 28 -25 31 -25 3 0 16 -12 28 -26 21 -24 25 -25 51 -13 16 8 35 26 42 41
16 34 48 45 71 24 10 -9 28 -16 40 -16 20 0 23 4 18 27 -6 31 1 55 14 47 5 -3
25 5 45 17 30 18 38 19 45 8 8 -13 13 -43 10 -61 0 -4 7 -12 17 -17 17 -9 82
13 82 28 0 3 14 22 30 41 23 27 30 45 30 77 0 51 38 105 61 86 21 -16 157 -3
220 22 10 4 19 0 23 -10 6 -18 38 -16 90 4 20 8 26 16 22 28 -4 9 -4 36 0 60
6 39 9 43 34 43 22 0 29 5 33 29 4 18 14 30 28 34 17 5 20 10 14 29 -14 45 -8
108 11 123 16 12 22 12 41 0 20 -14 23 -12 43 15 12 16 18 35 14 41 -4 7 0 17
8 23 16 12 48 72 48 90 0 19 377 9 420 -11 39 -18 59 -40 60 -64 0 -9 14 -32
31 -50 17 -18 35 -44 40 -56 9 -23 33 -31 43 -14 4 5 17 4 31 -2 17 -9 25 -20
25 -39 0 -15 5 -30 11 -34 6 -3 8 -16 5 -27 -3 -13 1 -25 12 -33 23 -18 32
-17 32 1 0 27 28 16 35 -13 10 -49 42 -92 67 -89 13 1 26 -6 32 -18 18 -34 91
-21 93 16 2 25 6 30 25 33 7 1 20 6 28 11 27 17 41 14 52 -11 6 -13 21 -27 33
-30 36 -9 43 -43 21 -97 -17 -40 -18 -53 -9 -78 11 -29 10 -31 -16 -40 -25 -9
-29 -15 -29 -50 -1 -22 3 -37 7 -35 4 3 13 1 21 -4 11 -7 12 -12 3 -21 -9 -9
-6 -20 13 -49 27 -40 25 -90 -2 -90 -15 0 -19 -12 -7 -24 24 -24 19 -129 -8
-162 -9 -11 -8 -14 4 -14 23 0 42 59 40 129 -1 39 3 72 11 83 16 23 -1 98 -22
98 -10 0 -12 8 -7 31 6 26 4 31 -15 36 -29 8 -23 47 8 51 17 3 22 10 22 31 0
15 -5 32 -11 38 -8 8 -4 26 14 64 19 38 23 57 16 70 -23 44 -48 43 769 35 428
-4 796 -4 818 0 21 3 53 17 69 30 25 20 28 26 15 34 -8 5 -23 7 -33 4 -17 -5
-17 -3 -7 16 7 13 10 38 7 56 -4 25 1 46 18 77 15 26 25 58 25 84 0 23 5 45
10 48 6 3 10 15 10 26 0 19 -3 27 -34 86 -22 42 -20 52 9 75 14 11 25 25 25
32 0 7 9 24 19 38 13 16 19 39 19 72 -1 36 4 52 21 69 l22 22 25 -30 c43 -51
99 -183 119 -277 3 -14 16 -40 30 -56 14 -17 25 -35 25 -40 0 -6 9 -17 21 -26
17 -12 20 -20 13 -48 -13 -57 -5 -133 22 -197 8 -18 14 -42 14 -52 0 -13 7
-19 23 -19 40 0 67 -12 67 -29 0 -18 62 -51 97 -51 31 0 106 -85 98 -111 -11
-33 21 -59 71 -59 49 0 74 -19 74 -56 0 -29 20 -40 47 -26 12 7 85 4 223 -7
195 -17 220 -18 208 -6 -8 8 -368 37 -415 33 -35 -2 -43 0 -43 13 0 33 -34 60
-80 65 -68 7 -72 10 -65 42 5 25 -1 35 -45 78 -38 37 -62 51 -98 59 -36 8 -48
15 -50 31 -3 20 -49 44 -85 44 -9 0 -16 3 -15 8 1 4 -4 30 -11 58 -7 29 -13
58 -14 65 -2 8 -6 19 -9 25 -8 12 -5 65 6 105 6 20 3 30 -11 41 -10 7 -24 22
-31 33 -7 11 -21 34 -32 50 -11 17 -20 41 -20 55 -1 14 -7 36 -15 50 -8 14
-14 35 -15 47 0 12 -7 28 -15 37 -8 8 -15 21 -15 28 0 23 -68 121 -95 137 -18
11 -25 24 -25 46 0 38 -24 77 -87 140 -61 62 -73 83 -73 131 0 31 8 44 56 90
53 52 62 68 273 526 120 260 273 589 340 731 67 142 132 284 146 315 13 31 82
183 153 337 98 211 127 282 117 289 -10 7 -9 16 2 45 11 28 25 41 63 58 44 19
110 88 110 115 0 13 -80 -1 -97 -16 -7 -6 -20 -17 -29 -25 -10 -8 -40 -15 -68
-16 -28 -1 -67 -8 -86 -16 -25 -11 -40 -12 -57 -5 -20 10 -21 13 -7 34 22 33
9 64 -25 60 -15 -1 -44 8 -66 22 -22 14 -48 28 -57 32 -10 4 -18 11 -19 15 -3
31 -10 48 -20 52 -6 2 -19 11 -29 20 -22 21 -35 24 -87 23 -24 -1 -43 3 -43 8
0 6 -8 10 -18 10 -9 0 -35 12 -57 27 -22 15 -50 26 -63 24 -17 -2 -25 3 -29
18 -3 12 -13 21 -22 21 -9 0 -24 9 -34 20 -9 11 -23 20 -31 20 -8 0 -25 10
-38 21 -22 20 -24 26 -15 65 9 37 8 47 -8 64 -25 28 -48 25 -75 -10 l-23 -31
-28 27 c-15 14 -32 23 -38 20 -9 -6 -55 44 -57 62 -6 47 -38 102 -61 102 -4 0
-29 19 -55 43 -44 40 -47 45 -50 102 -4 55 -7 62 -39 83 -33 23 -34 26 -40
105 -4 45 -10 225 -15 400 -7 310 -7 319 12 316 37 -6 74 11 80 36 3 14 10 23
14 20 4 -2 28 -7 54 -10 45 -6 47 -5 61 27 12 29 11 35 -2 51 -9 9 -13 18 -10
18 4 1 12 3 17 4 6 1 17 3 25 4 9 0 20 12 25 26 8 21 15 24 54 23 28 0 47 -6
50 -14 3 -9 21 -13 51 -12 45 1 45 1 51 39 7 39 14 43 62 42 6 -1 12 3 12 8 0
12 70 23 81 12 18 -18 83 0 96 26 6 14 19 28 27 33 9 5 16 20 16 33 0 16 6 25
15 25 9 0 18 7 21 15 7 18 35 20 52 3 9 -9 15 -10 20 -2 8 13 46 34 61 34 6 0
11 -5 11 -11 0 -20 42 -50 62 -43 11 3 24 1 31 -4 23 -17 61 -21 77 -8 20 17
78 28 85 16 4 -6 20 -4 42 5 25 11 40 12 48 5 7 -6 19 -8 28 -4 8 3 27 -2 41
-11 14 -9 30 -14 36 -10 6 4 21 0 34 -9 31 -20 95 -23 122 -6 18 11 21 22 20
64 -2 42 -7 57 -34 86 -18 19 -32 40 -32 47 0 7 -11 15 -25 19 -29 7 -24 21
12 35 13 5 22 13 19 18 -3 5 1 14 9 21 8 7 13 16 10 20 -10 17 8 42 27 37 12
-4 18 -1 15 6 -2 7 -15 13 -29 15 -22 3 -26 -2 -34 -40 -7 -32 -14 -43 -27
-43 -25 0 -54 -65 -35 -77 7 -4 19 -8 26 -8 7 0 10 -4 7 -10 -3 -5 3 -15 15
-22 11 -7 20 -18 20 -25 0 -7 7 -16 16 -21 22 -12 26 -100 5 -112 -19 -10 -70
-2 -91 14 -8 7 -26 11 -40 10 -14 -1 -38 5 -53 13 -15 7 -31 12 -35 9 -4 -3
-14 -1 -22 4 -8 5 -27 3 -49 -6 -22 -9 -38 -11 -44 -5 -12 12 -67 3 -87 -15
-16 -13 -54 -9 -77 8 -7 5 -21 7 -32 3 -14 -4 -26 3 -44 26 l-25 32 -35 -16
c-26 -13 -42 -15 -61 -7 -22 8 -30 5 -61 -24 -19 -18 -35 -41 -35 -50 0 -9 -5
-16 -10 -16 -6 0 -15 -11 -20 -25 -12 -30 -41 -38 -103 -27 -40 8 -49 7 -57
-7 -5 -9 -10 -12 -10 -7 0 4 -11 1 -25 -8 -13 -9 -34 -15 -47 -13 -20 2 -22
-2 -19 -37 2 -34 1 -38 -17 -34 -11 3 -26 2 -33 -3 -8 -5 -18 -1 -26 11 -8 11
-25 18 -42 18 -15 -1 -34 2 -40 7 -14 8 -63 -33 -55 -47 3 -4 -9 -11 -26 -15
-31 -6 -32 -7 -25 -50 6 -39 4 -44 -12 -43 -10 1 -36 2 -59 1 -33 -1 -43 -6
-52 -26 -16 -35 -57 -34 -74 3 -11 21 -24 30 -68 40 -108 24 -130 34 -151 69
-11 18 -26 33 -33 33 -6 0 -18 9 -26 21 -40 57 -84 100 -98 94 -22 -8 -40 12
-34 40 4 22 1 25 -23 25 -26 0 -27 2 -20 38 4 20 8 71 9 112 1 67 -1 75 -19
79 -33 6 -70 44 -69 69 1 13 -4 34 -10 48 l-11 24 -1098 0 -1098 0 3 -26z
m2194 -18 c3 -19 3 -39 0 -45 -7 -11 57 -66 76 -66 14 0 18 -109 7 -163 -9
-43 -1 -72 21 -72 13 0 16 -6 13 -24 -6 -27 3 -35 48 -40 17 -2 35 -10 40 -17
4 -8 21 -29 38 -48 17 -19 31 -38 31 -43 0 -4 5 -8 11 -8 13 0 39 -25 39 -38
0 -10 58 -36 105 -48 17 -4 35 -9 40 -10 6 -2 19 -5 29 -7 11 -2 23 -12 27
-23 4 -10 8 -130 8 -266 l1 -248 -304 0 -304 0 -6 -35 c-4 -21 -13 -35 -22
-35 -8 0 -17 -13 -21 -31 -3 -17 -11 -33 -18 -35 -7 -3 -18 -24 -25 -47 -8
-23 -20 -50 -29 -60 -8 -10 -17 -29 -18 -43 -2 -14 -8 -35 -12 -47 -5 -12 -10
-26 -11 -32 -1 -5 -9 -19 -16 -30 -21 -29 -17 -56 12 -86 34 -36 26 -57 -25
-65 -27 -4 -46 -14 -56 -31 -9 -13 -22 -22 -28 -20 -7 2 -19 1 -28 -4 -27 -14
-59 1 -59 26 0 13 -17 41 -39 64 -21 22 -41 47 -44 56 -4 8 -17 15 -30 15 -13
0 -32 7 -43 15 -10 8 -39 15 -62 15 -36 0 -45 -4 -49 -20 -3 -11 -12 -20 -21
-20 -19 0 -102 -41 -102 -51 0 -4 -11 -20 -25 -35 -14 -15 -25 -37 -25 -50 0
-13 -5 -35 -12 -49 -9 -20 -9 -31 0 -45 9 -15 7 -35 -7 -92 -11 -43 -15 -77
-10 -84 5 -6 4 -18 -4 -28 -11 -15 -16 -16 -48 -2 -23 9 -40 11 -50 5 -24 -15
-28 -11 -60 54 -30 60 -129 167 -155 167 -7 0 -35 23 -64 50 -29 27 -56 50
-61 50 -5 0 -9 7 -9 15 0 8 7 15 15 15 8 0 15 -4 15 -10 0 -13 28 -1 56 25 19
17 22 28 18 56 -5 28 -1 39 19 60 32 31 45 77 25 84 -9 4 -15 20 -16 40 -1 20
-10 43 -22 55 -11 11 -20 31 -20 45 0 14 -11 37 -24 50 -27 27 -37 57 -43 143
-3 44 -10 66 -22 75 -27 19 -27 128 0 153 14 13 18 25 14 45 -4 15 -1 37 5 49
7 14 8 25 2 33 -6 7 -12 23 -14 37 -1 14 -9 25 -17 25 -8 0 -23 32 -40 85 -21
68 -34 94 -68 129 -49 49 -51 56 -24 85 12 13 21 44 25 83 l7 62 -41 26 c-30
19 -56 26 -93 27 -56 1 -97 26 -97 59 0 23 -30 32 -63 20 -22 -9 -31 -6 -54
13 -23 20 -27 31 -27 75 0 49 -1 51 -28 51 -16 0 -58 -7 -94 -16 -61 -16 -67
-15 -112 1 -94 36 -113 46 -107 55 4 6 401 10 1090 10 l1084 0 7 -34z m-3942
-158 c3 -13 7 -45 10 -72 8 -69 26 -100 59 -104 54 -6 70 -65 68 -250 0 -94 2
-123 12 -119 6 2 35 10 63 17 l52 13 142 -126 c136 -120 143 -125 173 -116 20
5 35 5 41 -1 15 -15 56 -12 62 5 4 9 19 15 35 15 16 0 29 4 29 10 0 15 42 51
87 72 29 14 54 18 80 14 21 -3 39 -5 41 -6 1 0 7 -12 12 -26 8 -20 5 -32 -14
-61 -23 -33 -24 -38 -11 -64 l15 -27 39 18 c38 19 51 36 51 68 0 9 10 30 23
46 21 26 26 27 46 16 32 -17 50 3 59 65 4 27 13 50 20 53 6 2 12 -1 12 -7 0
-22 30 -10 61 24 18 19 36 32 41 29 5 -3 15 2 23 12 13 18 14 18 33 1 18 -17
20 -16 53 13 19 16 39 30 44 30 6 0 15 10 20 22 6 12 24 29 40 38 17 8 34 21
38 28 17 25 25 11 10 -19 -8 -16 -13 -31 -12 -32 2 -1 14 -7 26 -14 20 -11 22
-10 28 17 6 26 32 49 96 85 26 14 40 51 45 124 4 50 10 70 26 83 18 16 30 17
73 8 6 -1 12 -2 15 0 3 1 16 4 30 6 13 2 27 9 31 16 4 6 11 8 16 5 6 -4 20 7
31 23 17 23 30 29 55 28 44 -1 77 10 77 28 0 12 4 13 21 3 12 -6 38 -9 59 -5
35 5 39 4 50 -25 18 -42 51 -62 92 -54 23 4 48 0 81 -15 l48 -21 -7 -62 c-4
-39 -13 -70 -25 -83 -20 -22 -25 -54 -9 -54 6 0 15 -11 21 -24 6 -13 21 -29
34 -36 17 -9 29 -36 51 -106 17 -56 33 -94 41 -94 7 0 13 -8 13 -18 0 -10 5
-23 11 -29 8 -8 8 -17 -1 -33 -6 -11 -9 -34 -5 -49 4 -20 0 -32 -13 -45 -19
-17 -20 -21 -13 -153 1 -7 7 -13 15 -13 10 0 16 -17 19 -57 8 -94 18 -127 43
-151 13 -13 24 -33 24 -46 0 -13 9 -35 20 -49 12 -15 20 -40 20 -61 0 -23 5
-39 15 -42 20 -8 19 -20 -4 -43 -35 -35 -51 -74 -39 -96 8 -14 8 -20 -1 -23
-6 -2 -17 -9 -24 -16 -7 -8 -26 -11 -44 -9 -26 4 -31 2 -35 -21 -5 -27 20 -56
49 -56 7 0 13 -5 13 -10 0 -15 68 -73 102 -87 15 -7 31 -19 35 -28 3 -9 16
-21 29 -25 16 -6 36 -35 61 -85 l36 -76 41 2 c58 2 112 -22 147 -64 32 -39 49
-47 49 -22 0 18 -38 76 -58 88 -7 5 -10 12 -7 17 3 5 2 18 -3 27 -6 11 -6 27
1 43 5 14 11 30 11 35 1 6 5 24 9 42 5 19 4 40 -2 52 -8 14 -7 34 2 71 17 64
72 125 131 142 22 7 46 18 51 25 15 19 65 24 71 8 3 -8 21 -17 40 -21 19 -3
34 -12 34 -20 0 -7 13 -21 29 -30 29 -17 37 -31 50 -83 7 -29 38 -39 99 -33
34 3 46 10 54 28 6 13 17 24 24 24 27 0 84 34 84 50 0 9 -9 27 -20 40 -28 32
-34 59 -17 78 17 20 37 77 37 104 0 11 9 31 20 45 11 14 20 34 20 44 0 9 11
31 25 47 14 17 25 39 25 51 0 11 9 25 20 31 12 6 20 21 20 35 l0 25 299 0 299
0 6 -102 c3 -57 5 -128 5 -159 0 -54 1 -56 41 -83 41 -27 44 -35 41 -96 -3
-40 7 -52 92 -124 46 -39 58 -56 63 -87 4 -22 10 -39 15 -39 4 0 15 -13 25
-29 11 -18 23 -27 34 -24 9 2 31 -8 49 -22 l31 -27 29 33 c28 31 30 32 47 15
15 -15 16 -24 7 -57 -14 -53 15 -99 64 -99 12 0 27 -9 33 -20 6 -11 20 -20 30
-20 13 0 20 -7 20 -20 0 -14 7 -20 23 -20 39 0 67 -12 67 -28 0 -8 2 -13 6
-10 3 3 26 -5 50 -17 31 -16 57 -22 81 -19 24 3 42 -2 60 -16 14 -11 31 -20
38 -20 7 0 15 -13 18 -29 3 -15 14 -31 24 -35 24 -8 62 -31 76 -45 6 -6 26
-11 44 -11 32 0 46 -21 23 -35 -16 -10 -12 -45 5 -45 8 0 15 -4 15 -10 0 -14
53 -13 68 2 6 6 38 13 70 14 48 1 66 7 102 33 71 51 96 37 37 -22 -19 -18 -49
-38 -68 -43 -27 -8 -39 -20 -57 -59 -15 -31 -20 -51 -13 -53 21 -7 28 10 -170
-420 -49 -105 -89 -194 -89 -196 0 -3 -89 -195 -198 -428 -109 -233 -265 -569
-347 -748 -86 -190 -158 -333 -172 -345 -12 -12 -23 -23 -23 -27 0 -3 -19 -24
-41 -47 -39 -39 -41 -44 -37 -86 6 -47 44 -115 66 -115 6 0 12 -4 12 -8 0 -5
18 -28 40 -52 37 -41 45 -56 41 -88 -1 -6 2 -20 8 -29 7 -13 4 -25 -11 -46
-15 -21 -19 -39 -16 -70 4 -33 0 -48 -19 -70 -13 -16 -23 -34 -23 -42 0 -7
-11 -20 -25 -29 -29 -19 -28 -29 6 -103 20 -46 23 -65 12 -77 -5 -4 -8 -27 -9
-50 0 -25 -11 -64 -26 -92 -17 -33 -23 -57 -18 -74 3 -14 0 -39 -7 -57 -14
-34 -6 -47 24 -37 14 4 13 1 -6 -15 -23 -21 -26 -21 -857 -21 l-835 0 -9 24
c-11 30 -69 44 -83 21 -5 -10 -16 -14 -27 -10 -15 5 -20 -1 -25 -29 -8 -42
-40 -54 -70 -27 -11 11 -31 21 -43 23 -18 2 -28 14 -38 43 -15 44 -14 41 -14
54 0 14 -51 23 -65 11 -10 -8 -14 -3 -19 22 -4 18 -7 45 -7 59 0 19 -8 29 -35
41 -19 9 -37 12 -40 7 -10 -16 -22 -9 -28 16 -4 14 -11 25 -16 25 -19 0 -50
40 -50 63 0 13 -10 32 -22 43 -56 47 -65 49 -281 54 -114 3 -207 1 -207 -3 0
-17 -40 -94 -55 -107 -9 -7 -14 -19 -11 -25 8 -23 -13 -40 -50 -40 -31 0 -40
-5 -54 -30 -17 -31 -19 -74 -5 -109 6 -14 5 -17 -3 -12 -7 4 -18 -6 -29 -28
-9 -20 -23 -37 -30 -37 -7 -1 -19 -2 -25 -3 -14 -1 -27 -65 -21 -100 3 -16 -2
-25 -22 -34 -36 -16 -55 -15 -55 4 0 13 -6 15 -27 9 -16 -4 -49 -9 -75 -12
-27 -3 -48 -9 -48 -14 0 -5 -31 -6 -69 -4 -91 7 -114 -9 -117 -84 -2 -39 -8
-58 -26 -76 -13 -12 -34 -35 -47 -49 -23 -25 -45 -30 -47 -10 -2 33 -18 73
-31 78 -9 4 -31 -2 -49 -13 -18 -11 -42 -17 -53 -14 -18 4 -21 1 -22 -23 -1
-16 -1 -35 0 -41 2 -17 -4 -16 -39 2 -37 19 -70 6 -88 -35 -15 -34 -44 -44
-64 -21 -8 9 -29 27 -48 41 -31 23 -40 25 -152 25 -115 0 -119 -1 -114 -21 7
-27 -47 -92 -93 -111 -20 -8 -43 -22 -53 -30 -9 -8 -24 -16 -33 -17 -9 -1 -20
-8 -25 -16 -7 -11 -58 8 -242 85 -761 320 -823 349 -1463 687 -168 89 -214
108 -285 123 -158 32 -785 175 -830 190 -25 8 -97 24 -160 36 -101 20 -148 37
-405 151 -159 71 -294 133 -299 138 -6 6 -4 15 3 24 7 8 12 28 10 43 -5 64 67
148 143 166 15 4 33 13 40 21 8 7 33 17 55 20 66 12 107 73 83 125 -7 14 -23
47 -36 72 -24 46 -25 101 -3 115 5 3 9 13 9 24 0 10 15 35 32 55 18 20 45 51
61 68 26 30 32 53 28 109 -1 14 9 49 23 77 15 28 26 65 26 84 0 28 6 37 40 56
22 12 50 24 62 26 13 3 31 16 41 30 10 14 26 25 34 25 22 0 83 48 83 66 0 7 7
15 15 15 8 1 18 2 23 4 51 14 62 18 62 26 0 5 5 9 12 9 6 0 21 9 32 19 12 11
27 21 35 23 7 2 32 20 54 42 l41 39 73 -6 c40 -3 75 -1 78 4 4 5 15 9 26 9 10
0 19 5 19 11 0 6 7 8 17 5 9 -4 20 -2 23 5 5 8 13 8 27 1 15 -8 25 -7 41 4 11
8 25 13 29 12 4 -1 33 2 63 7 30 4 62 9 72 10 16 1 49 37 82 88 13 21 22 27
34 21 23 -10 82 -6 97 6 9 8 14 6 19 -5 5 -14 9 -14 37 0 23 12 34 14 44 5 8
-7 19 -8 26 -4 9 5 10 0 5 -19 -4 -18 -1 -30 10 -39 8 -7 25 -22 36 -32 21
-19 21 -19 40 4 18 22 19 22 37 5 29 -25 56 -11 74 38 16 42 70 334 207 1112
38 220 74 407 79 417 6 10 6 29 0 52 -7 25 -6 42 1 57 9 15 9 28 0 49 -7 16
-9 33 -6 38 3 5 -7 19 -22 31 -16 12 -35 37 -42 56 -8 19 -17 35 -22 35 -11 0
-10 38 2 61 6 11 7 25 3 32 -4 6 -9 21 -10 32 -3 22 -38 55 -58 55 -7 0 -15 4
-17 8 -5 13 -65 52 -80 52 -7 1 -29 20 -48 43 l-35 42 3 187 3 187 41 12 c22
6 49 8 59 6 10 -3 23 1 30 9 6 8 18 14 25 14 8 0 14 5 14 11 0 7 10 9 26 5 19
-5 35 0 59 18 l33 26 30 -32 c20 -19 37 -28 47 -24 9 3 13 2 10 -4 -4 -6 8
-10 28 -10 21 0 37 6 40 14 4 9 14 12 26 9 25 -6 27 5 7 33 -11 15 -12 30 -6
58 7 30 4 46 -11 75 -35 63 -105 111 -123 83 -3 -5 -35 -5 -71 -1 -37 5 -70 8
-73 7 -4 -1 -15 2 -26 7 -11 5 -26 3 -37 -3 -10 -7 -21 -12 -24 -12 -3 0 -5
69 -5 154 l0 155 30 14 c16 9 38 13 49 10 10 -3 31 3 45 12 24 16 29 16 75 1
42 -13 103 -16 375 -16 179 0 326 2 326 4 0 19 -16 36 -32 36 -13 0 -18 5 -15
14 3 8 2 16 -2 18 -13 5 7 48 25 55 11 4 23 -1 35 -15 9 -12 20 -22 24 -22 4
0 18 -9 32 -20 14 -11 29 -20 33 -20 4 0 27 25 51 55 41 52 46 55 89 55 42 0
47 3 67 39 13 22 32 42 43 46 11 3 20 11 20 16 0 20 40 8 44 -13z"/>
</g>
</svg>
